<svg viewBox="0 0 300 205" xmlns="http://www.w3.org/2000/svg" aria-hidden="true">
  <defs>
    <linearGradient id="wgrad" gradientUnits="userSpaceOnUse" x1="95" y1="25" x2="205" y2="190">
      <stop offset="0" stop-color="#63c6b4"/>
      <stop offset="0.5" stop-color="#1f8390"/>
      <stop offset="1" stop-color="#15324c"/>
    </linearGradient>
  </defs>
  <g fill="none" stroke="url(#wgrad)" stroke-width="9" stroke-linecap="round" stroke-linejoin="round">
    <line x1="20" y1="30" x2="91" y2="76"/>
    <line x1="20" y1="30" x2="49" y2="113"/>
    <line x1="91" y1="76" x2="49" y2="113"/>
    <line x1="49" y1="113" x2="92" y2="185"/>
    <line x1="92" y1="185" x2="150" y2="127"/>
    <line x1="91" y1="76" x2="150" y2="127"/>
    <line x1="150" y1="28" x2="91" y2="76"/>
    <line x1="150" y1="28" x2="209" y2="76"/>
    <line x1="209" y1="76" x2="150" y2="127"/>
    <line x1="280" y1="30" x2="209" y2="76"/>
    <line x1="280" y1="30" x2="251" y2="113"/>
    <line x1="209" y1="76" x2="251" y2="113"/>
    <line x1="251" y1="113" x2="208" y2="185"/>
    <line x1="208" y1="185" x2="150" y2="127"/>
  </g>
  <g fill="url(#wgrad)">
    <circle cx="20" cy="30" r="15"/>
    <circle cx="150" cy="28" r="15"/>
    <circle cx="280" cy="30" r="15"/>
    <circle cx="91" cy="76" r="15"/>
    <circle cx="209" cy="76" r="15"/>
    <circle cx="49" cy="113" r="15"/>
    <circle cx="251" cy="113" r="15"/>
    <circle cx="150" cy="127" r="16"/>
    <circle cx="92" cy="185" r="15"/>
    <circle cx="208" cy="185" r="15"/>
  </g>
</svg>
